HIERARCHY
ROOT Hips
{
	OFFSET -3.958830 18.904000 13.208200
	CHANNELS 6 Xposition Yposition Zposition Zrotation Yrotation Xrotation 
	JOINT LHipJoint
	{
		OFFSET 0.000000 0.000000 0.000000
		CHANNELS 3 Zrotation Yrotation Xrotation
		JOINT LeftUpLeg
		{
			OFFSET 1.800000 -1.400000 0.085000
			CHANNELS 3 Zrotation Yrotation Xrotation
			JOINT LeftLeg
			{
				OFFSET 2.215000 -6.000000 0.000000
				CHANNELS 3 Zrotation Yrotation Xrotation
				JOINT LeftFoot
				{
					OFFSET 2.500000 -6.900000 0.000000
					CHANNELS 3 Zrotation Yrotation Xrotation
					JOINT LeftToeBase
					{
						OFFSET 0.200000 -0.500000 1.950000
						CHANNELS 3 Zrotation Yrotation Xrotation
						End Site
						{
							OFFSET 0.000000 0.000000 0.000000
						}
					}
				}
			}
		}
	}
	JOINT RHipJoint
	{
		OFFSET 0.000000 0.000000 0.000000
		CHANNELS 3 Zrotation Yrotation Xrotation
		JOINT RightUpLeg
		{
			OFFSET -1.800000 -1.400000 0.085000
			CHANNELS 3 Zrotation Yrotation Xrotation
			JOINT RightLeg
			{
				OFFSET -2.215000 -6.000000 0.000000
				CHANNELS 3 Zrotation Yrotation Xrotation
				JOINT RightFoot
				{
					OFFSET -2.500000 -6.900000 0.000000
					CHANNELS 3 Zrotation Yrotation Xrotation
					JOINT RightToeBase
					{
						OFFSET -0.200000 -0.500000 1.950000
						CHANNELS 3 Zrotation Yrotation Xrotation
						End Site
						{
							OFFSET 0.000000 0.000000 0.000000
						}
					}
				}
			}
		}
	}
	JOINT LowerBack
	{
		OFFSET 0.000000 0.000000 0.000000
		CHANNELS 3 Zrotation Yrotation Xrotation
		JOINT Spine
		{
			OFFSET -0.087000 1.940000 -0.288900
			CHANNELS 3 Zrotation Yrotation Xrotation
			JOINT Spine1
			{
				OFFSET 0.000000 1.950000 0.060000
				CHANNELS 3 Zrotation Yrotation Xrotation
				JOINT Neck
				{
					OFFSET 0.000000 0.000000 0.000000
					CHANNELS 3 Zrotation Yrotation Xrotation
					JOINT Neck1
					{
						OFFSET 0.000000 1.600000 0.340000
						CHANNELS 3 Zrotation Yrotation Xrotation
						JOINT Head
						{
							OFFSET 0.000000 1.667000 -0.240000
							CHANNELS 3 Zrotation Yrotation Xrotation
							End Site
							{
								OFFSET 0.000000 0.000000 0.000000
							}
						}
					}
				}
				JOINT LeftShoulder
				{
					OFFSET 0.000000 0.000000 0.000000
					CHANNELS 3 Zrotation Yrotation Xrotation
					JOINT LeftArm
					{
						OFFSET 2.700000 1.550000 -0.730000
						CHANNELS 3 Zrotation Yrotation Xrotation
						JOINT LeftForeArm
						{
							OFFSET 5.450000 0.000000 0.000000
							CHANNELS 3 Zrotation Yrotation Xrotation
							JOINT LeftHand
							{
								OFFSET 3.450000 0.000000 0.000000
								CHANNELS 3 Zrotation Yrotation Xrotation
								JOINT LeftHandIndex1
								{
									OFFSET 0.750000 0.000000 0.000000
									CHANNELS 3 Zrotation Yrotation Xrotation
									End Site
									{
										OFFSET 0.000000 0.000000 0.000000
									}
								}
							}
						}
					}
				}
				JOINT RightShoulder
				{
					OFFSET 0.000000 0.000000 0.000000
					CHANNELS 3 Zrotation Yrotation Xrotation
					JOINT RightArm
					{
						OFFSET -2.700000 1.550000 -0.730000
						CHANNELS 3 Zrotation Yrotation Xrotation
						JOINT RightForeArm
						{
							OFFSET -5.450000 0.000000 0.000000
							CHANNELS 3 Zrotation Yrotation Xrotation
							JOINT RightHand
							{
								OFFSET -3.450000 0.000000 0.000000
								CHANNELS 3 Zrotation Yrotation Xrotation
								JOINT RightHandIndex1
								{
									OFFSET -0.750000 0.000000 0.000000
									CHANNELS 3 Zrotation Yrotation Xrotation
									End Site
									{
										OFFSET 0.000000 0.000000 0.000000
									}
								}
							}
						}
					}
				}
			}
		}
	}
}
MOTION
Frames: 9
Frame Time: 0.016667
1.999530 12.731810 -1.500050 -60.084060 -29.974800 55.911801 -15.763236 5.591668 7.113216 -31.840622 -38.252291 -84.102114 42.520621 -11.127962 53.736284 1.311872 11.118717 0.656356 0.153990 0.104870 0.164490 19.079457 -3.812593 7.798164 -53.285415 13.194463 -35.359865 37.671484 17.073266 -30.720597 -1.127316 -5.723465 2.395972 0.007050 0.060550 -0.126690 -4.528850 0.272356 -12.338380 16.356798 2.116618 53.470570 -21.909115 8.309775 3.530316 10.326158 -4.656753 -16.341956 -9.727899 7.519714 47.231682 0.838550 3.821700 -6.041600 -17.202861 -37.698829 16.025316 -14.047744 -11.911252 -4.349084 21.664012 -14.358937 -3.074929 -3.645288 3.040575 0.312070 -0.047590 -0.038180 -0.055940 -3.069169 50.595248 -11.066364 1.679376 38.492638 -9.929621 -23.409058 41.705238 -8.680461 2.847725 -1.228926 -0.129460 0.239410 0.077070 -0.126410 
2.001890 12.672840 -1.481930 -60.446951 -29.839706 55.334402 -15.765959 5.298560 7.004621 -31.075211 -38.070787 -84.200335 42.490186 -10.723286 51.422554 1.184631 10.696994 0.765332 0.148300 0.106710 0.167960 19.125188 -3.361654 8.210216 -52.770196 14.166076 -32.187880 35.668338 20.811124 -38.728267 -1.205681 -5.670624 2.456532 0.013520 0.059560 -0.123060 -4.593179 0.160676 -12.525675 17.262179 0.961505 53.259149 -22.450960 7.929447 4.182217 10.884374 -4.629248 -15.894269 -9.526506 7.552433 47.539983 -0.779380 4.355900 -6.626340 -17.396230 -37.086374 16.096522 -14.756147 -11.584138 -4.483550 22.442759 -14.792318 -3.304704 -3.667554 3.021611 0.314240 -0.033460 -0.037620 -0.068940 -4.208987 49.728113 -11.448242 -0.040918 38.353883 -10.486840 -24.577555 43.193893 -9.317821 2.805122 -1.265976 -0.135840 0.249950 0.093280 -0.135940 
1.998750 12.511580 -1.410860 -64.737534 -31.333522 56.364698 -15.636198 5.115441 6.677713 -29.821705 -35.002382 -84.565144 35.425988 -7.540231 48.261226 0.780206 9.006872 1.279181 0.165770 0.126540 0.212200 19.236731 -3.095937 8.551969 -48.681472 16.760863 -28.059119 28.127460 24.945814 -51.876030 -1.198770 -5.213809 2.686612 0.032950 0.063870 -0.120680 -4.812127 0.396702 -12.620352 20.076368 -0.100301 51.504296 -24.193911 8.299902 6.085092 11.963217 -5.035391 -15.551617 -10.057977 8.746426 47.795328 -3.669810 6.196020 -5.512720 -18.783945 -35.370261 15.939130 -16.328067 -10.202228 -5.444383 24.284547 -18.636082 -4.369075 -3.676029 3.054191 0.273190 0.003600 -0.046860 -0.061330 -5.383263 48.205161 -11.054064 -2.518039 37.539429 -11.486431 -28.853732 45.875114 -11.538549 2.789383 -1.339245 -0.134450 0.255390 0.071290 -0.145430 
2.005570 12.387540 -1.320850 -66.026982 -34.387305 54.042633 -15.642342 5.340406 6.494120 -29.029919 -32.109293 -82.733300 28.910807 -5.099848 51.002475 0.746155 8.541311 1.412462 0.170190 0.131270 0.237530 19.165939 -3.024201 8.486881 -43.239686 19.029897 -19.880033 12.597949 22.019353 -65.194279 -1.050657 -4.379116 2.998754 -0.025120 0.019250 -0.082400 -4.702957 0.021915 -12.542408 18.210898 -0.189424 53.713152 -24.401320 7.345093 6.873366 12.346629 -4.750308 -16.435467 -10.105819 9.138713 48.972119 -4.676900 6.873400 -4.964960 -19.786157 -34.493346 16.528170 -17.777386 -7.933389 -6.093066 25.885002 -17.618110 -4.492530 -3.670532 3.144108 0.262230 -0.022750 0.000450 -0.072560 -5.171588 47.842964 -9.746639 -7.843110 35.673651 -14.081266 -33.186262 47.129705 -13.154571 2.852535 -1.399415 -0.059650 0.193840 0.052500 -0.122650 
1.949540 12.253900 -1.221270 -63.753858 -35.601635 49.767070 -15.778513 5.165741 6.813486 -31.800749 -33.673831 -79.348718 29.904839 -5.790878 50.821159 0.782713 8.567141 1.386130 0.154570 0.102460 0.252450 19.052221 -2.818326 8.330700 -37.824430 19.718903 -10.836853 -0.324716 15.510549 -75.491747 -0.813225 -3.487192 3.302251 -0.061850 -0.037820 -0.077360 -4.595137 -0.455485 -12.643402 16.970599 -1.615227 54.318901 -23.994141 5.597630 8.053582 12.644237 -3.652907 -17.337837 -8.509920 9.052653 52.095010 -6.346910 7.869690 -4.071680 -20.624444 -34.082718 17.273854 -20.156094 -5.541612 -6.486692 26.547303 -17.576734 -4.604798 -3.642875 3.179161 0.299150 -0.042660 0.027440 -0.104820 -5.001945 46.614182 -8.076569 -10.224562 34.026291 -15.435740 -36.718437 46.181564 -14.203394 2.812355 -1.366573 -0.048740 0.151220 0.060720 -0.149510 
1.889220 12.124190 -1.162490 -64.271226 -39.667359 48.791370 -15.793825 5.110586 6.674672 -36.496773 -32.066861 -76.211634 21.198229 -1.272952 39.434985 0.255843 5.609282 2.376475 0.131960 0.072740 0.272990 19.087647 -2.564423 8.710110 -39.362640 19.855042 -8.756810 0.177978 17.084915 -79.981485 -0.741138 -3.089331 3.442300 -0.108250 -0.045520 -0.081340 -4.512029 -0.628020 -12.721399 14.518113 0.075644 53.356744 -23.778529 5.592797 8.789406 12.605080 -2.322926 -18.088507 -6.136176 8.297146 55.156422 -7.093890 8.319830 -2.316820 -20.174380 -33.502293 17.402953 -22.573427 -4.041766 -6.332910 25.882157 -17.355532 -4.438861 -3.614713 3.161321 0.294710 -0.051850 0.050430 -0.105180 -5.428084 45.281290 -6.681196 -10.391519 31.925348 -16.180439 -40.557408 43.878421 -15.535632 2.911329 -1.357188 -0.033460 0.157530 0.051690 -0.142330 
1.825000 12.024490 -1.130010 -68.580859 -43.631452 49.331371 -15.752238 5.209000 6.329689 -37.019032 -31.035051 -77.527093 23.597264 -1.227868 33.438559 0.101456 4.871950 2.623220 0.124610 0.046590 0.295030 19.177023 -2.330483 9.036004 -41.052773 21.133530 -7.498196 1.320891 20.261067 -84.288402 -0.653957 -2.660028 3.592369 -0.122920 -0.056570 -0.084610 -4.476827 -0.600784 -12.766650 14.008729 1.190664 53.951080 -24.079821 6.495095 8.807736 12.847987 -2.333629 -18.075219 -6.444738 8.057650 56.431164 -8.555020 8.168890 -2.761780 -20.067123 -32.141054 16.847292 -24.572656 -3.215777 -5.998180 25.083375 -17.269401 -4.277359 -3.593056 3.102739 0.325050 -0.060480 0.060420 -0.118080 -6.029983 44.277647 -6.062769 -11.460157 30.428691 -16.690554 -41.478325 43.112840 -15.603345 2.936898 -1.359872 -0.047800 0.177940 0.064630 -0.160450 
1.805830 11.925180 -1.077030 -71.661057 -45.147009 50.380531 -15.671914 4.892163 6.349064 -37.224191 -32.998910 -79.015014 32.130960 -1.921709 25.516740 0.084944 4.789929 2.644002 0.085570 -0.016640 0.288220 19.342953 -2.155234 9.197059 -43.882513 21.006626 -8.074787 1.258418 21.431788 -87.341123 -0.565343 -2.330134 3.704615 -0.148670 -0.052200 -0.099240 -4.757896 -0.138140 -12.954676 16.832263 -0.898792 53.925360 -26.369190 6.105709 8.153633 12.818596 -1.868509 -18.377182 -6.129163 7.375217 57.823884 -8.119370 7.422700 -2.658190 -20.649635 -31.182445 16.199922 -25.416002 -2.657728 -5.391655 23.714468 -15.730399 -3.641970 -3.598268 3.021983 0.369630 -0.070730 0.051420 -0.153000 -5.647065 42.238781 -4.923888 -10.346007 29.270427 -16.221728 -42.089233 43.297331 -15.761239 2.838073 -1.287740 -0.084620 0.197100 0.105130 -0.183370 
1.773180 11.897040 -1.021320 -74.476661 -47.527555 50.073741 -15.636253 4.895173 6.125075 -35.467580 -34.270686 -81.002549 43.324337 -3.680485 26.160790 0.458816 6.539170 2.027203 0.069110 -0.036310 0.289490 19.465065 -1.978414 9.495520 -48.317723 20.138799 -8.645768 10.657708 29.885227 -86.633202 -0.547969 -2.192073 3.729338 -0.176730 -0.082100 -0.089420 -4.834852 0.014813 -13.068110 17.387969 -1.755620 55.577182 -27.834041 6.447560 7.862581 12.787129 -0.240861 -19.430756 -3.278845 5.832845 59.736590 -7.965300 7.378590 -1.444870 -21.189399 -31.381676 16.042137 -24.760922 -1.554389 -4.779462 21.133604 -13.679358 -2.652691 -3.585516 3.018272 0.378980 -0.078120 0.066620 -0.175760 -5.332531 41.409516 -3.936783 -8.500468 27.522343 -16.210336 -43.054979 42.958954 -16.073270 2.856661 -1.293579 -0.067900 0.156790 0.109300 -0.191300 
